<?xml version="1.0" encoding="UTF-8"?>
<svg id="Logotipo_-_Versão_Nova" xmlns="http://www.w3.org/2000/svg" version="1.1" viewBox="0 0 1038.3 224.3">
  <!-- Generator: Adobe Illustrator 29.8.2, SVG Export Plug-In . SVG Version: 2.1.1 Build 3)  -->
  <defs>
    <style>
      .st0 {
        fill: #1d1d1d;
      }
    </style>
  </defs>
  <g id="Symbol">
    <path class="st0" d="M139.7,44.6c1.8,0,2.7,2.2,1.4,3.5-11.6,10.8-27.1,17.3-44.1,17.3s-32.5-6.6-44.1-17.3c-1.3-1.2-.5-3.5,1.4-3.5h85.5,0Z"/>
    <path class="st0" d="M207.2,46.6v113.3c0,1.2-1.1,2.2-2.4,2-37.3-7.6-65.3-40.5-65.3-80s3-25.3,8.4-36.2c.3-.7,1-1.1,1.8-1.1h55.4c1.1,0,2,.9,2,2h0Z"/>
    <path class="st0" d="M195.2,179.6H65.9c-1.5,0-2.5-1.7-1.7-3,13.2-22.9,38-38.3,66.4-38.3s53.2,15.4,66.4,38.3c.8,1.3-.2,3-1.7,3Z"/>
    <path class="st0" d="M87.4,116.4c0,26.6-14,49.9-35,63-.3.2-.7.3-1.1.3h-4.9c-1.1,0-2-.9-2-2V52.4c0-1.5,1.6-2.5,2.9-1.8,23.8,12.3,40,37.2,40,65.8Z"/>
  </g>
  <g id="Tipo">
    <path class="st0" d="M949.2,44.6v112.9c0,1.3.9,2.6,2.4,3.6l28,17.1c1.5.9,3.6,1.5,5.8,1.5h0c4.5,0,8.2-2.2,8.2-5V44.6h-44.5Z"/>
    <path class="st0" d="M281,179.6l52.2-112.8,43.9,99.6c3.5,8,11.5,13.2,20.2,13.2h36.3l-64.1-135h-45l-63.1,135h19.7Z"/>
    <path class="st0" d="M648.1,58.2v98.6c0,12.1,9.8,22.8,22,22.8h22.6V58.2s59.2,0,59.2,0v-13.5h-162.3l11.1,13.5s47.4,0,47.4,0Z"/>
    <path class="st0" d="M904.7,137.1c.3-.1.6-.3.9-.4,10.4-5.7,16.6-16.7,16.6-28.6v-27.9c0-9.8-4-19.3-11.4-25.7-.4-.3-.8-.6-1.1-1-7.2-5.8-16.3-8.8-25.6-8.8h-105.1v124.1c0,6.1,5,11.1,11.1,11.1h33.4v-39.8h32.8l43.5,39.8h22.4l-43.8-39.8h13.8c6.2,0,8.6-.9,12.5-2.9h0ZM823.3,126.7V59.8h61.2c9.5,0,18.1,5.7,21.8,14.4,0,0,0,0,0,.1.2.5.3,1,.3,1.6v32c0,1.9-.2,3.9-.8,5.8-1.3,4.1-3.8,6.9-6.3,8.9-3.6,2.8-8.1,4.1-12.6,4.1h-63.6Z"/>
    <path class="st0" d="M549.9,44.6l12.5,15.4h-47.5c-3,0-5.9.8-8.4,2.4-2.5,1.6-4.8,4.2-5.3,8.2-.9,7.9,8.7,16.3,10.9,18.1.5.4.9.8,1.4,1.2l28.5,24.8s18.5,18.1,19,29.2c0,.1,0,.3,0,.5.8,18.5-13.4,34.5-31.9,35.2-.5,0-.9,0-1.4,0h-61.4c-3.1,0-5.6-2.5-5.6-5.6v-7.8h49.6s9.7.3,11.9-8.8c1.2-4.7-.5-9.7-4-13l-48.6-46.4c-5.6-5.3-9-12.6-9.3-20.3-.1-5.2,1.1-11.1,5.4-17,11.8-16.2,27.3-16,27.3-16h56.9q0-.1,0-.1Z"/>
  </g>
</svg>